<?xml version="1.0" encoding="UTF-8"?>
<svg id="Layer_1" xmlns="http://www.w3.org/2000/svg" xmlns:xlink="http://www.w3.org/1999/xlink" viewBox="0 0 246.12 215.95">
  <defs>
    <style>
      .cls-1 {
        fill: url(#linear-gradient-2);
        fill-rule: evenodd;
      }

      .cls-2 {
        fill: url(#linear-gradient);
      }
    </style>
    <linearGradient id="linear-gradient" x1="-497.81" y1="-3160.75" x2="693.47" y2="2429.41" gradientTransform="translate(0 259.32) scale(1 -1)" gradientUnits="userSpaceOnUse">
      <stop offset="0" stop-color="#67489d"/>
      <stop offset=".2" stop-color="#a0479b"/>
      <stop offset=".4" stop-color="#d6186d"/>
      <stop offset=".6" stop-color="#d52027"/>
      <stop offset=".8" stop-color="#d47728"/>
      <stop offset="1" stop-color="#d5bd29"/>
    </linearGradient>
    <linearGradient id="linear-gradient-2" x1="0" y1="151.34" x2="410.87" y2="151.34" xlink:href="#linear-gradient"/>
  </defs>
  <path class="cls-2" d="M208.22,18.85c0,10.36,8.42,18.78,18.78,18.78s18.78-8.42,18.78-18.78S237.36.07,227,.07s-18.78,8.42-18.78,18.78Z"/>
  <path class="cls-1" d="M80.87,12.91c8.06-17.22,32.55-17.22,40.6,0l.03.06,73.18,157.69v.02c1.02,2.17,2.22,3.04,3.2,3.49,1.18.53,2.79.75,4.57.35,1.77-.39,3.15-1.27,4-2.25.71-.82,1.44-2.12,1.44-4.52v-100.76c0-10.55,8.56-19.11,19.11-19.11s19.11,8.56,19.11,19.11v100.76c0,48.32-65.75,62.92-86.1,19,0,0,0-.01,0-.02l-58.61-126.29-27.85,61.93c8.87-3.79,18.65-6.87,29.39-8.87,10.38-1.93,20.35,4.91,22.28,15.29,1.93,10.38-4.91,20.35-15.29,22.29-25.92,4.83-44.36,18.36-56.53,31.03-6.08,6.33-10.49,12.35-13.33,16.7-1.41,2.17-2.42,3.9-3.05,5.02-.31.56-.52.97-.64,1.19l-.1.2v-.03s.02-.02.02-.02M36.29,205.22c-4.57,9.36-15.79,13.35-25.24,8.94-9.48-4.41-13.65-15.62-9.36-25.16L80.75,13.18l.12-.26"/>
</svg>